<svg width="123" height="75" viewBox="0 0 123 75" fill="none" xmlns="http://www.w3.org/2000/svg">
<path opacity="0.75" d="M18.7133 10.1938C17.2771 10.7633 16.0443 11.7541 15.1748 13.0374C14.3053 14.3208 13.8394 15.8375 13.8375 17.3906V37.5C13.8375 40.7821 12.5416 43.9297 10.2349 46.2504C7.92822 48.5712 4.79966 49.875 1.5375 49.875H0V43.6875C0.00525795 41.8436 0.422524 40.0245 1.22093 38.3647C2.01933 36.7049 3.17844 35.247 4.6125 34.0988V17.3906C4.61759 12.8794 6.40107 8.55435 9.57168 5.36441C12.7423 2.17447 17.0411 0.380118 21.525 0.375H30.75C27.9287 0.374545 25.193 1.3499 23.0016 3.13757C20.8101 4.92523 19.2961 7.41652 18.7133 10.1938ZM64.1387 46.2224C62.6977 44.4603 60.8863 43.0415 58.8349 42.0682C56.7835 41.095 54.5431 40.5914 52.275 40.5938C42.8021 40.5938 37.2632 48.4693 36.9192 55.2678C36.9077 55.5308 36.9 55.7957 36.9 56.0625C38.6824 57.8304 40.7654 59.2627 43.05 60.2913V65.2567C43.05 66.9235 44.3242 68.3505 45.977 68.4336C46.3928 68.4538 46.8083 68.3888 47.1984 68.2426C47.5884 68.0964 47.9449 67.8721 48.2463 67.5832C48.5476 67.2943 48.7875 66.9469 48.9515 66.5619C49.1154 66.177 49.2 65.7626 49.2 65.3438V61.9967C50.9489 62.2133 51.6619 62.453 55.35 61.9967V65.2587C55.35 66.9254 56.6242 68.3524 58.277 68.4356C58.693 68.4557 59.1086 68.3907 59.4988 68.2444C59.889 68.0981 60.2456 67.8736 60.547 67.5845C60.8484 67.2954 61.0882 66.9477 61.252 66.5625C61.4159 66.1773 61.5002 65.7627 61.5 65.3438V60.2816C63.7841 59.2562 65.867 57.8272 67.65 56.0625C67.655 52.471 66.4131 48.9906 64.1387 46.2224Z" fill="#BEA887"/>
<path d="M121.847 41.5064L119.925 38.8361V23.9474C119.925 23.4229 119.793 22.9069 119.54 22.448C119.287 21.9892 118.923 21.6025 118.481 21.3242C118.039 21.046 117.534 20.8854 117.013 20.8576C116.493 20.8297 115.974 20.9355 115.505 21.165C113.412 22.2111 111.738 23.7986 110.417 25.6297L97.7677 8.0533C96.0583 5.67733 93.8136 3.74273 91.2176 2.40807C88.6216 1.07342 85.7481 0.376689 82.8328 0.375H30.75C27.4878 0.375 24.3593 1.67879 22.0526 3.99955C19.7459 6.32032 18.45 9.46795 18.45 12.75V71.5312C18.45 72.3518 18.774 73.1387 19.3506 73.7189C19.9273 74.299 20.7095 74.625 21.525 74.625H33.825C34.6405 74.625 35.4227 74.299 35.9994 73.7189C36.576 73.1387 36.9 72.3518 36.9 71.5312V56.0625C36.9 51.9599 38.5199 48.0254 41.4032 45.1244C44.2866 42.2235 48.1973 40.5937 52.275 40.5937C56.3527 40.5937 60.2634 42.2235 63.1468 45.1244C66.0301 48.0254 67.65 51.9599 67.65 56.0625V71.684C67.689 72.4778 68.0301 73.226 68.6026 73.7735C69.1751 74.3211 69.9351 74.626 70.725 74.625H83.025C83.8405 74.625 84.6227 74.299 85.1994 73.7189C85.776 73.1387 86.1 72.3518 86.1 71.5312V37.5L92.25 43.6875V51.708C92.2471 54.1517 92.9633 56.5415 94.3083 58.5762L102.244 70.5644C103.24 72.0697 104.658 73.2436 106.318 73.9374C107.978 74.6311 109.805 74.8136 111.568 74.4615C113.331 74.1095 114.951 73.2388 116.221 71.9599C117.492 70.681 118.357 69.0513 118.707 67.2773L122.883 46.2785C123.046 45.4542 123.038 44.6048 122.86 43.7836C122.682 42.9625 122.337 42.1872 121.847 41.5064ZM72.4989 20.3606L68.0997 24.7615C63.897 28.9606 58.2134 31.3157 52.2904 31.3125H52.2596C46.3367 31.3155 40.6531 28.9604 36.4503 24.7615L32.0511 20.3606C29.0299 17.3384 31.6091 12.75 36.3234 12.75H68.2266C72.9409 12.75 75.5297 17.3384 72.4989 20.3606ZM110.7 56.0625C110.092 56.0625 109.497 55.8811 108.992 55.5411C108.486 55.2012 108.092 54.718 107.859 54.1527C107.626 53.5874 107.565 52.9653 107.684 52.3652C107.803 51.7651 108.096 51.2138 108.526 50.7811C108.956 50.3485 109.504 50.0538 110.1 49.9344C110.697 49.8151 111.315 49.8763 111.877 50.1105C112.439 50.3447 112.919 50.7412 113.257 51.25C113.595 51.7587 113.775 52.3569 113.775 52.9687C113.775 53.7893 113.451 54.5762 112.874 55.1564C112.298 55.7365 111.516 56.0625 110.7 56.0625Z" fill="#4D5984"/>
</svg>
