<svg width="100" height="100" viewBox="0 0 100 100" fill="none" xmlns="http://www.w3.org/2000/svg">
<path d="M68.75 37.5H61.209C58.1406 34.875 54.2832 32.9941 50 32.0312V22.7422L43.75 22.082L37.5 22.7422V32.0312C33.2168 33.0078 29.3594 34.8828 26.291 37.5H3.125C2.2962 37.5 1.50134 37.8292 0.915291 38.4153C0.32924 39.0013 0 39.7962 0 40.625L0 59.375C0 60.2038 0.32924 60.9987 0.915291 61.5847C1.50134 62.1708 2.2962 62.5 3.125 62.5H21.248C25.2695 69.8691 33.7891 75 43.75 75C53.7109 75 62.2305 69.8691 66.252 62.5H68.75C70.4076 62.5 71.9973 63.1585 73.1694 64.3306C74.3415 65.5027 75 67.0924 75 68.75C75 70.4076 75.6585 71.9973 76.8306 73.1694C78.0027 74.3415 79.5924 75 81.25 75H93.75C95.4076 75 96.9973 74.3415 98.1694 73.1694C99.3415 71.9973 100 70.4076 100 68.75C100 60.462 96.7076 52.5134 90.8471 46.6529C84.9866 40.7924 77.038 37.5 68.75 37.5ZM50 8.54297V3.125C50 2.2962 49.6708 1.50134 49.0847 0.915291C48.4987 0.32924 47.7038 0 46.875 0L40.625 0C39.7962 0 39.0013 0.32924 38.4153 0.915291C37.8292 1.50134 37.5 2.2962 37.5 3.125V8.54297L43.75 9.20312L50 8.54297Z" fill="#4D5984"/>
<path d="M87.5 81.25C87.5 81.25 81.25 90.2988 81.25 93.75C81.25 95.4076 81.9085 96.9973 83.0806 98.1694C84.2527 99.3415 85.8424 100 87.5 100C89.1576 100 90.7473 99.3415 91.9194 98.1694C93.0915 96.9973 93.75 95.4076 93.75 93.75C93.75 90.2988 87.5 81.25 87.5 81.25ZM71.5645 6.26759L43.75 9.20314L15.9355 6.27345C14.0957 6.07228 12.5 7.59767 12.5 9.54884V15.4512C12.5 17.4043 14.0957 18.9277 15.9355 18.7324L43.75 15.7969L71.5645 18.7266C73.4043 18.9219 75 17.3965 75 15.4453V9.54884C75 7.59767 73.4043 6.07228 71.5645 6.26759Z" fill="#9BA2AB"/>
</svg>
