<svg width="87" height="83" viewBox="0 0 87 83" fill="none" xmlns="http://www.w3.org/2000/svg">
<path d="M67.7693 24.0369C75.7685 13.3097 74.6861 4.15767 73.6301 0.232874C73.6213 0.232874 73.6037 0.224074 73.5949 0.224074C64.4165 -1.56233 54.9301 7.52807 52.4045 20.5169C50.1781 31.9657 54.0941 42.6225 61.3189 46.2217C60.3509 41.7161 60.4389 33.8753 67.7693 24.0369ZM76.4725 1.18327C76.9477 3.68247 77.2117 7.19368 76.4021 11.3561C75.5837 15.5537 73.6829 20.4113 69.8373 25.5769C62.0229 36.0577 63.1229 43.8633 64.2405 47.2513C64.3021 47.2601 64.3637 47.2777 64.4253 47.2953C73.6037 49.0817 83.0901 39.9913 85.6157 27.0025C87.8685 15.4305 83.8469 4.66807 76.4725 1.18327Z" fill="#4D5984"/>
<path d="M22.3261 25.5329C35.6581 26.7033 42.8653 20.9745 45.6549 18.0089C45.6461 18.0001 45.6461 17.9825 45.6461 17.9737C42.3461 9.22647 29.6301 5.92647 17.2397 10.6081C6.32768 14.7265 -0.685915 23.6497 0.0532851 31.7017C3.38848 28.5073 10.1117 24.4681 22.3261 25.5329ZM29.1901 42.2705C40.2165 38.1169 47.2565 29.0441 46.3501 20.9305C44.4757 22.6465 41.6245 24.7145 37.6557 26.2105C33.6605 27.7153 28.5301 28.6569 22.1061 28.0937C9.08208 26.9497 3.01888 31.9833 0.730885 34.7201C0.757285 34.7817 0.774885 34.8433 0.792485 34.8961C4.08368 43.6521 16.7997 46.9521 29.1901 42.2705Z" fill="#6F7987"/>
<path d="M15.8581 76.4673C11.8717 69.4361 14.5821 58.4185 22.8277 50.1729C32.1909 40.8009 45.1357 38.5745 51.7445 45.1833C51.7533 45.1921 51.7621 45.2009 51.7709 45.2097C50.4509 49.0553 46.2357 57.2481 33.6077 61.6745C22.0445 65.7313 17.5829 72.1817 15.8581 76.4673ZM47.8549 55.9809C44.8365 58.9993 40.5421 61.9737 34.4613 64.1033C22.1237 68.4329 18.6741 75.5169 17.7149 78.9489C17.7589 78.9929 17.8029 79.0457 17.8469 79.0897C24.4557 85.6985 37.4005 83.4633 46.7637 74.1089C55.0973 65.7753 57.7725 54.6169 53.6101 47.5945C52.6069 49.9265 50.8645 52.9801 47.8549 55.9809Z" fill="#BEA887"/>
</svg>
