<svg width="448" height="512" viewBox="0 0 448 512" fill="none" xmlns="http://www.w3.org/2000/svg">
<path d="M48 160H400L392 256H56L48 160ZM378.67 416H69.33L58.33 284.24L74.89 482.66C75.5572 490.659 79.2061 498.115 85.113 503.549C91.0199 508.984 98.7534 512 106.78 512H341.22C349.247 512 356.98 508.984 362.887 503.549C368.794 498.115 372.443 490.659 373.11 482.66L389.65 284.24L378.67 416Z" fill="#BEA887"/>
<path d="M432 79H416L392.84 32.69C390.183 27.3747 386.098 22.9044 381.043 19.78C375.988 16.6555 370.163 15.0004 364.22 15L83.78 15C77.8374 15.0004 72.0123 16.6555 66.9574 19.78C61.9025 22.9044 57.8175 27.3747 55.16 32.69L32 79H16C11.7565 79 7.68687 80.6857 4.68629 83.6863C1.68571 86.6869 0 90.7565 0 95L0 127C0 131.243 1.68571 135.313 4.68629 138.314C7.68687 141.314 11.7565 143 16 143H432C436.243 143 440.313 141.314 443.314 138.314C446.314 135.313 448 131.243 448 127V95C448 90.7565 446.314 86.6869 443.314 83.6863C440.313 80.6857 436.243 79 432 79Z" fill="#6F7987"/>
<path d="M69.33 416H378.67L392 256H56L69.33 416Z" fill="#4D5984"/>
</svg>
