<svg width="112" height="112" viewBox="0 0 112 112" fill="none" xmlns="http://www.w3.org/2000/svg">
<path d="M100 0H12C8.8174 0 5.76515 1.26428 3.51472 3.51472C1.26428 5.76516 0 8.8174 0 12L0 100C0 103.183 1.26428 106.235 3.51472 108.485C5.76515 110.736 8.8174 112 12 112H100C103.183 112 106.235 110.736 108.485 108.485C110.736 106.235 112 103.183 112 100V12C112 8.8174 110.736 5.76516 108.485 3.51472C106.235 1.26428 103.183 0 100 0ZM62 88V92C62 93.0609 61.5786 94.0783 60.8284 94.8284C60.0783 95.5786 59.0609 96 58 96H54C52.9391 96 51.9217 95.5786 51.1716 94.8284C50.4214 94.0783 50 93.0609 50 92V87.95C45.8568 87.799 41.8385 86.4914 38.4 84.175C36.225 82.7 35.9 79.65 37.825 77.875L40.825 75.05C42.175 73.775 44.15 73.7 45.75 74.65C47.2567 75.5393 48.9754 76.0057 50.725 76H61.975C64.8 76 67.1 73.375 67.1 70.15C67.1 67.5 65.525 65.175 63.3 64.475L45.25 59C38 56.8 32.95 49.75 32.95 41.85C32.95 32.025 40.6 24.025 50 24V20C50 18.9391 50.4214 17.9217 51.1716 17.1716C51.9217 16.4214 52.9391 16 54 16H58C59.0609 16 60.0783 16.4214 60.8284 17.1716C61.5786 17.9217 62 18.9391 62 20V24.05C66.1432 24.201 70.1615 25.5086 73.6 27.825C75.775 29.3 76.1 32.35 74.175 34.125L71.175 36.95C69.825 38.225 67.85 38.3 66.25 37.35C64.7433 36.4607 63.0246 35.9943 61.275 36H50.025C47.2 36 44.9 38.625 44.9 41.85C44.9 44.5 46.475 46.825 48.7 47.525L66.7 53C73.95 55.2 79 62.25 79 70.15C79.05 79.975 71.4 87.95 62 88Z" fill="#4D5984"/>
<path d="M62 88V92C62 93.0609 61.5786 94.0783 60.8285 94.8284C60.0783 95.5786 59.0609 96 58 96H54C52.9392 96 51.9217 95.5786 51.1716 94.8284C50.4215 94.0783 50 93.0609 50 92V87.95C45.8568 87.799 41.8386 86.4914 38.4 84.175C36.225 82.7 35.9 79.65 37.825 77.875L40.825 75.05C42.175 73.775 44.15 73.7 45.75 74.65C47.2567 75.5393 48.9754 76.0057 50.725 76H61.975C64.8 76 67.1 73.375 67.1 70.15C67.1 67.5 65.525 65.175 63.3 64.475L45.25 59C38 56.8 32.95 49.75 32.95 41.85C32.95 32.025 40.6 24.025 50 24V20C50 18.9391 50.4215 17.9217 51.1716 17.1716C51.9217 16.4214 52.9392 16 54 16H58C59.0609 16 60.0783 16.4214 60.8285 17.1716C61.5786 17.9217 62 18.9391 62 20V24.05C66.1432 24.201 70.1615 25.5086 73.6 27.825C75.775 29.3 76.1 32.35 74.175 34.125L71.175 36.95C69.825 38.225 67.85 38.3 66.25 37.35C64.7433 36.4607 63.0246 35.9943 61.275 36H50.025C47.2 36 44.9 38.625 44.9 41.85C44.9 44.5 46.475 46.825 48.7 47.525L66.7 53C73.95 55.2 79 62.25 79 70.15C79.05 79.975 71.4 87.95 62 88Z" fill="#BEA887"/>
</svg>
