<svg width="105" height="73" viewBox="0 0 105 73" fill="none" xmlns="http://www.w3.org/2000/svg">
<path d="M103.683 52.8272L99.4788 50.3993C99.9024 48.1049 99.9024 45.7523 99.4788 43.4578L103.683 41.0299C103.918 40.8957 104.099 40.6848 104.197 40.4327C104.295 40.1805 104.303 39.9024 104.221 39.6449C103.137 36.1628 101.289 32.9671 98.8107 30.2917C98.6285 30.0929 98.384 29.9619 98.1175 29.9204C97.8509 29.879 97.5782 29.9295 97.3442 30.0636L93.1402 32.4915C91.3644 30.9775 89.3266 29.8013 87.1275 29.0208V24.1649C87.1272 23.8952 87.0351 23.6337 86.8662 23.4234C86.6974 23.2131 86.4619 23.0666 86.1987 23.008C82.6473 22.2095 78.963 22.2095 75.4116 23.008C75.1483 23.0666 74.9129 23.2131 74.744 23.4234C74.5752 23.6337 74.4831 23.8952 74.4828 24.1649V29.0208C72.2837 29.8013 70.2459 30.9775 68.4701 32.4915L64.2661 30.0636C64.0319 29.9301 63.7593 29.8799 63.4929 29.9213C63.2266 29.9628 62.9821 30.0934 62.7996 30.2917C60.3214 32.9671 58.473 36.1628 57.3897 39.6449C57.311 39.9026 57.3212 40.1793 57.4187 40.4305C57.5162 40.6817 57.6954 40.8929 57.9275 41.0299L62.1315 43.4578C61.7078 45.7523 61.7078 48.1049 62.1315 50.3993L57.9275 52.8272C57.6926 52.9615 57.5111 53.1723 57.4132 53.4245C57.3153 53.6766 57.307 53.9547 57.3897 54.2123C58.4768 57.6927 60.3247 60.8876 62.7996 63.5654C62.9818 63.7643 63.2263 63.8952 63.4928 63.9367C63.7593 63.9781 64.032 63.9277 64.2661 63.7935L68.4701 61.3656C70.2459 62.8796 72.2837 64.0559 74.4828 64.8364V69.6922C74.4831 69.9619 74.5752 70.2235 74.744 70.4338C74.9129 70.6441 75.1483 70.7906 75.4116 70.8491C78.963 71.6476 82.6473 71.6476 86.1987 70.8491C86.4619 70.7906 86.6974 70.6441 86.8662 70.4338C87.0351 70.2235 87.1272 69.9619 87.1275 69.6922V64.8364C89.3266 64.0559 91.3644 62.8796 93.1402 61.3656L97.3442 63.7935C97.5784 63.9271 97.8509 63.9772 98.1173 63.9358C98.3837 63.8943 98.6282 63.7638 98.8107 63.5654C101.289 60.8901 103.137 57.6944 104.221 54.2123C104.299 53.9546 104.289 53.6778 104.192 53.4266C104.094 53.1754 103.915 52.9643 103.683 52.8272V52.8272ZM80.8214 54.8315C79.2584 54.8315 77.7304 54.368 76.4308 53.4996C75.1312 52.6312 74.1182 51.3969 73.5201 49.9529C72.9219 48.5088 72.7654 46.9198 73.0704 45.3868C73.3753 43.8538 74.128 42.4456 75.2332 41.3404C76.3385 40.2351 77.7466 39.4824 79.2796 39.1775C80.8127 38.8726 82.4017 39.0291 83.8457 39.6272C85.2898 40.2254 86.5241 41.2383 87.3925 42.5379C88.2608 43.8376 88.7243 45.3655 88.7243 46.9286C88.7222 49.0239 87.8889 51.0328 86.4072 52.5144C84.9256 53.996 82.9167 54.8293 80.8214 54.8315V54.8315Z" fill="#BEA887"/>
<path d="M52.1429 36.5C52.4525 36.5 52.7458 36.4185 53.0554 36.4022C54.3981 32.8411 56.4054 29.5675 58.9703 26.7558C59.5717 26.1079 60.3003 25.5911 61.1106 25.2378C61.921 24.8845 62.7955 24.7024 63.6795 24.7027C64.8022 24.6991 65.9053 24.9974 66.8732 25.5663L68.1605 26.3158C68.2908 26.2344 68.4212 26.1692 68.5516 26.0877C69.74 23.6509 70.3638 20.9775 70.3766 18.2663C70.3798 14.6554 69.3118 11.1247 67.3077 8.12101C65.3036 5.11732 62.4535 2.77564 59.1181 1.39232C55.7826 0.00900593 52.1118 -0.353778 48.5702 0.349883C45.0285 1.05354 41.7752 2.79202 39.2219 5.34531C36.6686 7.8986 34.9301 11.1519 34.2264 14.6936C33.5228 18.2353 33.8856 21.9061 35.2689 25.2415C36.6522 28.5769 38.9939 31.427 41.9976 33.4311C45.0013 35.4352 48.532 36.5032 52.1429 36.5V36.5ZM28.206 39.5308C26.2545 37.587 23.6115 36.497 20.8571 36.5H10.4286C7.66354 36.5026 5.01249 37.6021 3.05732 39.5573C1.10214 41.5125 0.00258858 44.1635 0 46.9286V52.1429C0 53.5258 0.549361 54.852 1.52723 55.8299C2.5051 56.8078 3.83137 57.3571 5.21429 57.3571H15.9525C16.4489 53.6314 17.8173 50.0754 19.9465 46.9779C22.0756 43.8805 24.9054 41.329 28.206 39.5308V39.5308ZM15.6429 31.2857C17.7054 31.2857 19.7217 30.6741 21.4367 29.5282C23.1516 28.3823 24.4883 26.7536 25.2776 24.848C26.0669 22.9424 26.2734 20.8456 25.871 18.8226C25.4687 16.7997 24.4754 14.9415 23.017 13.483C21.5585 12.0246 19.7003 11.0313 17.6774 10.629C15.6544 10.2266 13.5576 10.4331 11.652 11.2224C9.74644 12.0117 8.11772 13.3484 6.97182 15.0633C5.82591 16.7783 5.21429 18.7946 5.21429 20.8571C5.21687 23.6222 6.31643 26.2732 8.2716 28.2284C10.2268 30.1836 12.8778 31.2831 15.6429 31.2857V31.2857ZM69.2848 68.1931C68.91 67.9975 68.5353 67.7694 68.1768 67.5576C66.8406 68.3397 65.6837 69.1545 63.6958 69.1545C62.8123 69.1515 61.9388 68.9678 61.1289 68.6147C60.3191 68.2617 59.59 67.7466 58.9866 67.1013C55.9867 63.8553 53.7489 59.9808 52.4362 55.7603C50.6926 50.1386 56.4935 47.6618 56.6402 47.5641C56.6239 47.1404 56.6239 46.7167 56.6402 46.2931L55.3529 45.5435C54.7548 45.1899 54.2159 44.7445 53.756 44.2237C53.2183 44.2563 52.6969 44.3214 52.1591 44.3214C48.1507 44.3214 44.4029 43.3438 40.9973 41.7143H39.6449C37.1787 41.7132 34.7365 42.1979 32.4576 43.1407C30.1788 44.0835 28.1079 45.4658 26.3633 47.2089C24.6187 48.952 23.2345 51.0217 22.2898 53.2997C21.345 55.5777 20.8582 58.0195 20.8571 60.4857V65.1786C20.8571 67.2529 21.6812 69.2424 23.148 70.7092C24.6148 72.176 26.6042 73 28.6786 73H70.2951C69.655 72.0138 69.305 70.8677 69.2848 69.6922V68.1931Z" fill="#4D5984"/>
</svg>
