<svg width="36" height="17" viewBox="0 0 36 17" fill="none" xmlns="http://www.w3.org/2000/svg">
<path d="M26.4994 0C22.7813 0 19.8731 2.19406 18 4.17563C16.1269 2.19406 13.2187 0 9.50062 0C4.26375 0 0 3.81438 0 8.5C0 13.1856 4.26375 17 9.50062 17C13.2187 17 16.1269 14.8059 18 12.8244C19.8731 14.8059 22.7813 17 26.4994 17C31.7363 17 36 13.1856 36 8.5C36 3.81438 31.7363 0 26.4994 0ZM9.50062 11.9C7.23937 11.9 5.4 10.3753 5.4 8.5C5.4 6.62469 7.23937 5.1 9.50062 5.1C11.6494 5.1 13.6294 7.01781 14.7881 8.5C13.6406 9.96625 11.6437 11.9 9.50062 11.9V11.9ZM26.4994 11.9C24.3506 11.9 22.3706 9.98219 21.2119 8.5C22.3594 7.03375 24.3563 5.1 26.4994 5.1C28.7606 5.1 30.6 6.62469 30.6 8.5C30.6 10.3753 28.7606 11.9 26.4994 11.9Z" fill="#4D5984"/>
</svg>
